<svg width="32" height="32" viewBox="0 0 32 32" fill="none" xmlns="http://www.w3.org/2000/svg">
<path fill-rule="evenodd" clip-rule="evenodd" d="M26.3333 16C26.3333 15.4477 25.8856 15 25.3333 15H6.66667C6.11439 15 5.66667 15.4477 5.66667 16C5.66667 16.5523 6.11439 17 6.66667 17H25.3333C25.8856 17 26.3333 16.5523 26.3333 16Z" fill="#FBFBFB"/>
<path fill-rule="evenodd" clip-rule="evenodd" d="M26.3333 9.33331C26.3333 8.78103 25.8856 8.33331 25.3333 8.33331H6.66667C6.11439 8.33331 5.66667 8.78103 5.66667 9.33331C5.66667 9.8856 6.11439 10.3333 6.66667 10.3333H25.3333C25.8856 10.3333 26.3333 9.8856 26.3333 9.33331Z" fill="#FBFBFB"/>
<path fill-rule="evenodd" clip-rule="evenodd" d="M26.3333 22.6666C26.3333 22.1144 25.8856 21.6666 25.3333 21.6666H6.66667C6.11439 21.6666 5.66667 22.1144 5.66667 22.6666C5.66667 23.2189 6.11439 23.6666 6.66667 23.6666H25.3333C25.8856 23.6666 26.3333 23.2189 26.3333 22.6666Z" fill="#FBFBFB"/>
</svg>
