<svg width="41" height="40" viewBox="0 0 41 40" fill="none" xmlns="http://www.w3.org/2000/svg">
<path d="M40.224 18.032C40.224 21.04 39.616 23.472 38.4 25.328C37.184 27.12 35.744 28.528 34.08 29.552C32.48 30.512 30.88 31.152 29.28 31.472C27.68 31.792 26.528 31.92 25.824 31.856V29.936C26.144 29.872 26.88 29.712 28.032 29.456C29.248 29.2 30.496 28.784 31.776 28.208C33.12 27.632 34.304 26.832 35.328 25.808C36.416 24.784 36.992 23.472 37.056 21.872C36.864 22.256 36.512 22.608 36 22.928C35.488 23.248 34.944 23.504 34.368 23.696C33.792 23.888 33.184 24.048 32.544 24.176C31.968 24.24 31.456 24.272 31.008 24.272C28.64 24.272 26.656 23.472 25.056 21.872C23.456 20.208 22.656 18.224 22.656 15.92C22.656 13.488 23.392 11.44 24.864 9.77601C26.4 8.04801 28.416 7.18401 30.912 7.18401C32.256 7.18401 33.504 7.50401 34.656 8.144C35.808 8.784 36.8 9.648 37.632 10.736C38.464 11.76 39.104 12.912 39.552 14.192C40 15.472 40.224 16.752 40.224 18.032ZM37.344 16.496C37.344 15.344 37.056 14.128 36.48 12.848C35.968 11.504 35.168 10.576 34.08 10.064V21.776C36.256 20.688 37.344 18.928 37.344 16.496ZM31.872 22.352V9.2C31.552 9.072 31.232 9.00801 30.912 9.00801C30.592 9.00801 30.272 9.00801 29.952 9.00801C29.76 9.00801 29.664 9.10401 29.664 9.29601C29.664 9.42401 29.376 9.552 28.8 9.68L28.704 21.68C29.216 22.256 29.792 22.544 30.432 22.544C30.752 22.544 31.232 22.48 31.872 22.352ZM18.144 18.032C18.144 21.04 17.536 23.472 16.32 25.328C15.104 27.12 13.664 28.528 12 29.552C10.4 30.512 8.79999 31.152 7.19999 31.472C5.59999 31.792 4.44799 31.92 3.74399 31.856V29.936C4.06399 29.872 4.79999 29.712 5.95199 29.456C7.16799 29.2 8.41599 28.784 9.69599 28.208C11.04 27.632 12.224 26.832 13.248 25.808C14.336 24.784 14.912 23.472 14.976 21.872C14.784 22.256 14.432 22.608 13.92 22.928C13.408 23.248 12.864 23.504 12.288 23.696C11.712 23.888 11.104 24.048 10.464 24.176C9.88799 24.24 9.37599 24.272 8.92799 24.272C6.55999 24.272 4.57599 23.472 2.97599 21.872C1.37599 20.208 0.575989 18.224 0.575989 15.92C0.575989 13.488 1.31199 11.44 2.78399 9.77601C4.31999 8.04801 6.33599 7.18401 8.83199 7.18401C10.176 7.18401 11.424 7.50401 12.576 8.144C13.728 8.784 14.72 9.648 15.552 10.736C16.384 11.76 17.024 12.912 17.472 14.192C17.92 15.472 18.144 16.752 18.144 18.032ZM15.264 16.496C15.264 15.344 14.976 14.128 14.4 12.848C13.888 11.504 13.088 10.576 12 10.064V21.776C14.176 20.688 15.264 18.928 15.264 16.496ZM9.79199 22.352V9.2C9.47199 9.072 9.15199 9.00801 8.83199 9.00801C8.51199 9.00801 8.19199 9.00801 7.87199 9.00801C7.67999 9.00801 7.58399 9.10401 7.58399 9.29601C7.58399 9.42401 7.29599 9.552 6.71999 9.68L6.62399 21.68C7.13599 22.256 7.71199 22.544 8.35199 22.544C8.67199 22.544 9.15199 22.48 9.79199 22.352Z" fill="#D18B4B"/>
</svg>
