<svg width="41" height="40" viewBox="0 0 41 40" fill="none" xmlns="http://www.w3.org/2000/svg">
<path d="M40.512 16.536C40.512 19.224 39.68 21.368 38.016 22.968C36.416 24.568 34.464 25.368 32.16 25.368C31.52 25.368 30.912 25.336 30.336 25.272C29.76 25.208 29.184 25.08 28.608 24.888C28.096 24.632 27.552 24.28 26.976 23.832C26.4 23.384 25.76 22.776 25.056 22.008C25.056 22.008 24.992 21.976 24.864 21.912C24.8 21.784 24.768 22.04 24.768 22.68C24.768 23.384 25.056 24.152 25.632 24.984C26.272 25.752 27.008 26.52 27.84 27.288C28.736 27.992 29.632 28.6 30.528 29.112C31.488 29.624 32.288 29.976 32.928 30.168C33.504 30.296 34.304 30.456 35.328 30.648C36.352 30.776 37.216 30.84 37.92 30.84C37.984 31.096 38.048 31.512 38.112 32.088C38.24 32.664 37.952 32.952 37.248 32.952C34.944 32.888 32.864 32.44 31.008 31.608C29.152 30.712 27.584 29.592 26.304 28.248C25.024 26.84 24.032 25.272 23.328 23.544C22.624 21.816 22.272 20.056 22.272 18.264C22.272 17.24 22.496 16.12 22.944 14.904C23.392 13.624 24.032 12.472 24.864 11.448C25.696 10.36 26.688 9.46401 27.84 8.76001C29.056 8.05601 30.4 7.70401 31.872 7.70401C33.216 7.70401 34.4 7.99201 35.424 8.56801C36.512 9.08001 37.44 9.78401 38.208 10.68C38.976 11.512 39.552 12.44 39.936 13.464C40.32 14.488 40.512 15.512 40.512 16.536ZM38.688 16.632C38.688 14.776 38.112 13.272 36.96 12.12C35.872 10.904 34.784 10.104 33.696 9.72001V23.352C34.976 23.096 36.128 22.456 37.152 21.432C38.176 20.344 38.688 18.744 38.688 16.632ZM31.968 23.832L32.064 9.72001C31.424 9.59201 30.88 9.68801 30.432 10.008C29.984 10.264 29.44 10.584 28.8 10.968V22.68C28.928 22.68 29.024 22.744 29.088 22.872C29.216 23 29.376 23.128 29.568 23.256C29.76 23.384 30.016 23.512 30.336 23.64C30.72 23.768 31.264 23.832 31.968 23.832ZM18.624 16.536C18.624 19.224 17.792 21.368 16.128 22.968C14.528 24.568 12.576 25.368 10.272 25.368C9.63197 25.368 9.02397 25.336 8.44797 25.272C7.87197 25.208 7.29597 25.08 6.71997 24.888C6.20797 24.632 5.66397 24.28 5.08797 23.832C4.51197 23.384 3.87197 22.776 3.16797 22.008C3.16797 22.008 3.10397 21.976 2.97597 21.912C2.91197 21.784 2.87997 22.04 2.87997 22.68C2.87997 23.384 3.16797 24.152 3.74397 24.984C4.38397 25.752 5.11997 26.52 5.95197 27.288C6.84797 27.992 7.74397 28.6 8.63997 29.112C9.59997 29.624 10.4 29.976 11.04 30.168C11.616 30.296 12.416 30.456 13.44 30.648C14.464 30.776 15.328 30.84 16.032 30.84C16.096 31.096 16.16 31.512 16.224 32.088C16.352 32.664 16.064 32.952 15.36 32.952C13.056 32.888 10.976 32.44 9.11997 31.608C7.26397 30.712 5.69597 29.592 4.41597 28.248C3.13597 26.84 2.14397 25.272 1.43997 23.544C0.735972 21.816 0.383972 20.056 0.383972 18.264C0.383972 17.24 0.607972 16.12 1.05597 14.904C1.50397 13.624 2.14397 12.472 2.97597 11.448C3.80797 10.36 4.79997 9.46401 5.95197 8.76001C7.16797 8.05601 8.51197 7.70401 9.98397 7.70401C11.328 7.70401 12.512 7.99201 13.536 8.56801C14.624 9.08001 15.552 9.78401 16.32 10.68C17.088 11.512 17.664 12.44 18.048 13.464C18.432 14.488 18.624 15.512 18.624 16.536ZM16.704 16.632C16.704 14.776 16.16 13.272 15.072 12.12C13.984 10.904 12.896 10.104 11.808 9.72001V23.352C13.088 23.096 14.208 22.456 15.168 21.432C16.192 20.344 16.704 18.744 16.704 16.632ZM10.08 23.832L10.176 9.72001C9.53597 9.59201 8.99197 9.68801 8.54397 10.008C8.09597 10.264 7.55197 10.584 6.91197 10.968V22.68C7.03997 22.68 7.13597 22.744 7.19997 22.872C7.32797 23 7.48797 23.128 7.67997 23.256C7.87197 23.384 8.12797 23.512 8.44797 23.64C8.83197 23.768 9.37597 23.832 10.08 23.832Z" fill="#D18B4B"/>
</svg>
