<svg width="491" height="76" viewBox="0 0 491 76" fill="none" xmlns="http://www.w3.org/2000/svg">
<path d="M276.661 66.3832L249.896 38.1607L276.987 9.59399L303.752 37.8165L276.661 66.3832ZM256.832 38.1607L276.661 59.0694L296.816 37.8165L276.987 16.9078L256.832 38.1607Z" fill="url(#paint0_linear_9_85161)"/>
<path d="M213.422 66.3832L186.657 38.1607L213.748 9.59399L240.513 37.8165L213.422 66.3832ZM193.593 38.1607L213.422 59.0694L233.577 37.8165L213.748 16.9078L193.593 38.1607Z" fill="url(#paint1_linear_9_85161)"/>
<path d="M245.612 75.9771L209.383 37.7734L245.204 0L281.434 38.2036L245.612 75.9771ZM222.071 37.7734L245.612 62.5972L268.746 38.2467L245.204 13.4229L222.112 37.8164L222.071 37.7734Z" fill="url(#paint2_linear_9_85161)"/>
<path d="M187.188 3.87207L157.282 35.4073H1.52588e-05V40.5699H156.874L186.739 72.0621L190.207 68.4483L161.566 38.2037L190.656 7.52895L187.188 3.87207Z" fill="url(#paint3_linear_9_85161)"/>
<path d="M490.817 35.4073H333.984L304.078 3.87207L300.61 7.52895L329.292 37.7305L300.202 68.4483L303.629 72.0621L333.535 40.5699H490.817V35.4073Z" fill="url(#paint4_linear_9_85161)"/>
<defs>
<linearGradient id="paint0_linear_9_85161" x1="260.627" y1="6.19525" x2="284.969" y2="49.2164" gradientUnits="userSpaceOnUse">
<stop stop-color="#BB7239"/>
<stop offset="0.23" stop-color="#FCEEAE"/>
<stop offset="0.52" stop-color="#E09E5B"/>
<stop offset="0.75" stop-color="#FCE9A4"/>
<stop offset="0.83" stop-color="#F1D693"/>
<stop offset="0.92" stop-color="#E1BD7C"/>
<stop offset="1" stop-color="#D08A4A"/>
</linearGradient>
<linearGradient id="paint1_linear_9_85161" x1="197.796" y1="-20.2634" x2="218.039" y2="46.9289" gradientUnits="userSpaceOnUse">
<stop stop-color="#BB7239"/>
<stop offset="0.23" stop-color="#FCEEAE"/>
<stop offset="0.52" stop-color="#E09E5B"/>
<stop offset="0.75" stop-color="#FCE9A4"/>
<stop offset="0.83" stop-color="#F1D693"/>
<stop offset="0.92" stop-color="#E1BD7C"/>
<stop offset="1" stop-color="#D08A4A"/>
</linearGradient>
<linearGradient id="paint2_linear_9_85161" x1="264.135" y1="-16.5205" x2="231.667" y2="68.4196" gradientUnits="userSpaceOnUse">
<stop stop-color="#BB7239"/>
<stop offset="0.23" stop-color="#FCEEAE"/>
<stop offset="0.52" stop-color="#E09E5B"/>
<stop offset="0.75" stop-color="#FCE9A4"/>
<stop offset="0.83" stop-color="#F1D693"/>
<stop offset="0.92" stop-color="#E1BD7C"/>
<stop offset="1" stop-color="#D08A4A"/>
</linearGradient>
<linearGradient id="paint3_linear_9_85161" x1="203.997" y1="-16.0472" x2="76.1665" y2="56.4899" gradientUnits="userSpaceOnUse">
<stop stop-color="#BB7239"/>
<stop offset="0.23" stop-color="#FCEEAE"/>
<stop offset="0.52" stop-color="#E09E5B"/>
<stop offset="0.75" stop-color="#FCE9A4"/>
<stop offset="0.83" stop-color="#F1D693"/>
<stop offset="0.92" stop-color="#E1BD7C"/>
<stop offset="1" stop-color="#D08A4A"/>
</linearGradient>
<linearGradient id="paint4_linear_9_85161" x1="357.199" y1="-15.4018" x2="403.462" y2="57.7204" gradientUnits="userSpaceOnUse">
<stop stop-color="#BB7239"/>
<stop offset="0.23" stop-color="#FCEEAE"/>
<stop offset="0.52" stop-color="#E09E5B"/>
<stop offset="0.75" stop-color="#FCE9A4"/>
<stop offset="0.83" stop-color="#F1D693"/>
<stop offset="0.92" stop-color="#E1BD7C"/>
<stop offset="1" stop-color="#D08A4A"/>
</linearGradient>
</defs>
</svg>
